<svg width="20" height="20" viewBox="0 0 20 20" fill="none" xmlns="http://www.w3.org/2000/svg">
<path fill-rule="evenodd" clip-rule="evenodd" d="M7.91669 1.66667H4.16669C3.70645 1.66667 3.33336 1.29357 3.33336 0.833333C3.33336 0.373096 3.70645 0 4.16669 0H7.91669C9.52752 0 10.8334 1.30584 10.8334 2.91667V4.16667C10.8334 4.6269 10.4603 5 10 5C9.53979 5 9.16669 4.6269 9.16669 4.16667V2.91667C9.16669 2.22631 8.60705 1.66667 7.91669 1.66667ZM2.25323e-05 10C2.25323e-05 7.92893 1.67895 6.25 3.75002 6.25H16.25C18.3211 6.25 20 7.92893 20 10V18.2333C19.9999 18.7017 19.8119 19.1504 19.4784 19.4792C19.1438 19.8141 18.6893 20.0016 18.2159 20C16.6008 20 16.3281 19.471 14.8269 16.5594L14.8225 16.5508C14.7332 16.3793 14.6401 16.1987 14.542 16.0086C14.4085 15.7498 14.2659 15.4733 14.1117 15.1783C13.735 14.5504 13.0564 14.1663 12.3242 14.1667H7.67502C6.93216 14.1688 6.24573 14.5633 5.87002 15.2042L5.26752 16.3658C3.64752 19.5 3.39836 19.9783 1.77419 20H1.75002C1.28695 20.002 0.841961 19.8204 0.512523 19.495C0.183138 19.1714 -0.00165648 18.7284 2.25323e-05 18.2667V10ZM5.41669 11.25H6.04169C6.38687 11.25 6.66669 10.9702 6.66669 10.625C6.66669 10.2798 6.38687 10 6.04169 10H5.41669C5.18657 10 5.00002 9.81345 5.00002 9.58333V8.95833C5.00002 8.61316 4.7202 8.33333 4.37502 8.33333C4.02984 8.33333 3.75002 8.61316 3.75002 8.95833V9.58333C3.75002 9.81345 3.56347 10 3.33336 10H2.70836C2.36318 10 2.08336 10.2798 2.08336 10.625C2.08336 10.9702 2.36318 11.25 2.70836 11.25H3.33336C3.56347 11.25 3.75002 11.4365 3.75002 11.6667V12.2917C3.75002 12.6368 4.02984 12.9167 4.37502 12.9167C4.7202 12.9167 5.00002 12.6368 5.00002 12.2917V11.6667C5.00002 11.4365 5.18657 11.25 5.41669 11.25ZM12.5 10.4167C12.5 10.8769 12.8731 11.25 13.3334 11.25C13.7936 11.25 14.1667 10.8769 14.1667 10.4167C14.1667 9.95643 13.7936 9.58333 13.3334 9.58333C12.8731 9.58333 12.5 9.95643 12.5 10.4167ZM14.5834 12.0833C14.5834 12.5436 14.9565 12.9167 15.4167 12.9167C15.8769 12.9167 16.25 12.5436 16.25 12.0833C16.25 11.6231 15.8769 11.25 15.4167 11.25C14.9565 11.25 14.5834 11.6231 14.5834 12.0833ZM14.5834 8.75C14.5834 9.21024 14.9565 9.58333 15.4167 9.58333C15.8769 9.58333 16.25 9.21024 16.25 8.75C16.25 8.28976 15.8769 7.91667 15.4167 7.91667C14.9565 7.91667 14.5834 8.28976 14.5834 8.75ZM16.6667 10.4167C16.6667 10.8769 17.0398 11.25 17.5 11.25C17.9603 11.25 18.3334 10.8769 18.3334 10.4167C18.3334 9.95643 17.9603 9.58333 17.5 9.58333C17.0398 9.58333 16.6667 9.95643 16.6667 10.4167Z" fill="#1D1D1B"/>
</svg>
