<svg width="20" height="20" viewBox="0 0 20 20" fill="none" xmlns="http://www.w3.org/2000/svg">
<path fill-rule="evenodd" clip-rule="evenodd" d="M19.2 2.50751C19.1989 2.05533 19.0234 1.62259 18.7128 1.30667C18.4081 0.992706 17.9923 0.82383 17.564 0.840007C14.492 0.935007 11.404 1.56334 9.8432 2.76334C9.70196 2.87197 9.50924 2.87197 9.368 2.76334C7.808 1.56417 4.712 0.935007 1.636 0.840007C1.20779 0.824627 0.792362 0.993384 0.4872 1.30667C0.176629 1.62259 0.00105905 2.05533 0 2.50751V14.5908C-0.000220087 15.4969 0.694435 16.2371 1.564 16.2575C6.3424 16.4 8.8072 17.775 8.8072 18.3292C8.8072 18.7894 9.16537 19.1625 9.6072 19.1625C10.049 19.1625 10.4072 18.7894 10.4072 18.3292C10.4072 17.7742 12.8672 16.4 17.6368 16.2575C18.5064 16.2371 19.201 15.4969 19.2008 14.5908L19.2 2.50751ZM1.9816 14.605C1.76727 14.5956 1.59821 14.4118 1.5984 14.1883L1.5888 2.93834C1.58868 2.82443 1.63334 2.71544 1.71239 2.63672C1.79143 2.55801 1.89796 2.51643 2.0072 2.52167C6.4952 2.73417 8.8072 4.04001 8.8072 4.57667V15.4842C8.80686 15.6245 8.7387 15.7553 8.62587 15.832C8.51304 15.9088 8.3707 15.9212 8.2472 15.865C6.2452 15.0676 4.1247 14.6411 1.9816 14.605ZM17.5904 14.1883C17.5906 14.4115 17.422 14.5952 17.208 14.605C15.0734 14.6424 12.9616 15.0686 10.968 15.8642C10.8444 15.9204 10.7019 15.9079 10.589 15.831C10.4761 15.754 10.4081 15.623 10.408 15.4825V4.57751C10.408 4.04167 12.7152 2.73501 17.184 2.52417C17.2932 2.51893 17.3998 2.56051 17.4788 2.63922C17.5579 2.71794 17.6025 2.82693 17.6024 2.94084L17.5904 14.1883ZM7.4144 5.78001C6.06695 5.33902 4.67697 5.05396 3.2696 4.93001C3.05624 4.90842 2.84803 5.00705 2.72341 5.18873C2.59878 5.37041 2.57668 5.60754 2.66541 5.81081C2.75414 6.01408 2.94024 6.15259 3.1536 6.17417C4.47055 6.28912 5.77141 6.55432 7.0328 6.96501C7.3454 7.06951 7.68058 6.89289 7.78499 6.56867C7.8894 6.24444 7.72426 5.89301 7.4144 5.78001ZM3.2696 8.40751C4.67705 8.53088 6.06709 8.81595 7.4144 9.25751C7.72426 9.37051 7.8894 9.72194 7.78499 10.0462C7.68058 10.3704 7.3454 10.547 7.0328 10.4425C5.77155 10.0313 4.47063 9.76604 3.1536 9.65167C2.82378 9.61831 2.58237 9.31274 2.6144 8.96917C2.64643 8.62561 2.93978 8.37414 3.2696 8.40751ZM7.4144 12.735C6.06709 12.2933 4.67706 12.008 3.2696 11.8842C2.94683 11.8638 2.66645 12.1131 2.63521 12.4484C2.60397 12.7837 2.83308 13.0845 3.1536 13.1292C4.47072 13.2429 5.7717 13.5081 7.0328 13.92C7.3454 14.0245 7.68058 13.8479 7.78499 13.5237C7.8894 13.1994 7.72426 12.848 7.4144 12.735ZM16.0608 6.17417C14.7436 6.28904 13.4424 6.55424 12.1808 6.96501C11.8682 7.06951 11.533 6.89289 11.4286 6.56867C11.3242 6.24444 11.4893 5.89301 11.7992 5.78001C13.1467 5.33902 14.5366 5.05396 15.944 4.93001C16.2738 4.89641 16.5673 5.14769 16.5996 5.49126C16.6319 5.83482 16.3906 6.14058 16.0608 6.17417ZM12.1808 10.4425C13.4423 10.0312 14.7435 9.76597 16.0608 9.65167C16.3906 9.61808 16.6319 9.31232 16.5996 8.96876C16.5673 8.62519 16.2738 8.37391 15.944 8.40751C14.5366 8.53097 13.1465 8.81603 11.7992 9.25751C11.4893 9.37051 11.3242 9.72194 11.4286 10.0462C11.533 10.3704 11.8682 10.547 12.1808 10.4425ZM16.0608 13.1258C14.7434 13.2395 13.4422 13.5047 12.1808 13.9167C11.8682 14.0212 11.533 13.8446 11.4286 13.5203C11.3242 13.1961 11.4893 12.8447 11.7992 12.7317C13.1465 12.29 14.5365 12.0046 15.944 11.8808C16.2672 11.8596 16.5484 12.1089 16.5798 12.4446C16.6113 12.7802 16.3818 13.0815 16.0608 13.1258Z" fill="#1D1D1B"/>
</svg>
