<svg width="20" height="20" viewBox="0 0 20 20" fill="none" xmlns="http://www.w3.org/2000/svg">
<path fill-rule="evenodd" clip-rule="evenodd" d="M17.917 2.5H15.6253C15.5103 2.5 15.417 2.40673 15.417 2.29167V0.833333C15.417 0.373096 15.0439 0 14.5837 0C14.1234 0 13.7503 0.373096 13.7503 0.833333V4.79167C13.7503 5.13684 13.4705 5.41667 13.1253 5.41667C12.7801 5.41667 12.5003 5.13684 12.5003 4.79167V2.91667C12.5003 2.68655 12.3138 2.5 12.0837 2.5H6.87533C6.76059 2.5 6.66745 2.40723 6.66699 2.2925V0.833333C6.66699 0.373096 6.2939 0 5.83366 0C5.37342 0 5.00033 0.373096 5.00033 0.833333V4.79167C5.00033 5.13684 4.7205 5.41667 4.37533 5.41667C4.03015 5.41667 3.75033 5.13684 3.75033 4.79167V2.91667C3.75033 2.68655 3.56378 2.5 3.33366 2.5H2.08366C1.16318 2.5 0.416992 3.24619 0.416992 4.16667V18.3333C0.416992 19.2538 1.16318 20 2.08366 20H17.917C18.8375 20 19.5837 19.2538 19.5837 18.3333V4.16667C19.5837 3.24619 18.8375 2.5 17.917 2.5ZM17.5003 18.3333H2.50033C2.27021 18.3333 2.08366 18.1468 2.08366 17.9167V7.91667C2.08366 7.68655 2.27021 7.5 2.50033 7.5H17.5003C17.7304 7.5 17.917 7.68655 17.917 7.91667V17.9167C17.917 18.1468 17.7304 18.3333 17.5003 18.3333Z" fill="#1D1D1B"/>
</svg>
