<svg width="20" height="20" viewBox="0 0 20 20" fill="none" xmlns="http://www.w3.org/2000/svg">
<path fill-rule="evenodd" clip-rule="evenodd" d="M8.74574 9.69471L13.8536 10.2948C14.8142 10.4044 15.7721 10.0714 16.4253 9.40066L17.7716 7.99116C17.8106 7.95053 17.8656 7.92659 17.9238 7.92484C17.9823 7.92313 18.039 7.94425 18.0803 7.98317L19.2599 9.09064C19.3815 9.20452 19.5641 9.23853 19.7227 9.17685C19.8813 9.11516 19.9849 8.96989 19.9853 8.80858V5.38071C20.0049 5.25995 20.0049 5.13711 19.9853 5.01635V4.41388C19.9853 4.19323 19.7949 4.01436 19.5601 4.01436H18.9214C18.7909 3.99521 18.6581 3.99521 18.5276 4.01436H14.8826C14.7109 4.01472 14.5563 4.11205 14.4906 4.26111C14.425 4.41016 14.4612 4.58169 14.5824 4.69594L15.972 6.00476C16.0518 6.07985 16.0555 6.20031 15.9805 6.27963L14.5339 7.7906C14.4411 7.88552 14.3052 7.93253 14.1691 7.91685L9.06211 7.31678C8.14992 7.20576 7.23487 7.5013 6.58814 8.11581L0.373882 13.9536C-0.124461 14.4216 -0.124652 15.1805 0.373457 15.6487C0.871565 16.1169 1.67935 16.1171 2.17769 15.6491L8.3928 9.80897C8.48541 9.72181 8.61564 9.67965 8.74574 9.69471Z" fill="#1D1D1B"/>
</svg>
