<svg width="20" height="20" viewBox="0 0 20 20" fill="none" xmlns="http://www.w3.org/2000/svg">
<path fill-rule="evenodd" clip-rule="evenodd" d="M8.54167 1.66667C8.54167 2.1269 8.16857 2.5 7.70833 2.5C7.2481 2.5 6.875 2.1269 6.875 1.66667V0.833333C6.875 0.373096 7.2481 0 7.70833 0C8.16857 0 8.54167 0.373096 8.54167 0.833333V1.66667ZM3.65709 4.25225C3.36573 4.32851 3.0559 4.24163 2.84667 4.025L2.2575 3.43583C1.94169 3.10885 1.94621 2.5891 2.26765 2.26765C2.5891 1.94621 3.10885 1.94169 3.43583 2.2575L4.025 2.84667C4.24163 3.0559 4.32851 3.36573 4.25225 3.65709C4.17598 3.94845 3.94845 4.17598 3.65709 4.25225ZM2.5 7.70833C2.5 7.2481 2.1269 6.875 1.66667 6.875H0.833333C0.373096 6.875 0 7.2481 0 7.70833C0 8.16857 0.373096 8.54167 0.833333 8.54167H1.66667C2.1269 8.54167 2.5 8.16857 2.5 7.70833ZM12.57 4.025C12.4138 4.18129 12.2018 4.26912 11.9808 4.26917C11.6438 4.26909 11.3401 4.06606 11.2111 3.75471C11.0821 3.44336 11.1534 3.085 11.3917 2.84667L11.9808 2.2575C12.3078 1.94169 12.8276 1.94621 13.149 2.26765C13.4705 2.5891 13.475 3.10885 13.1592 3.43583L12.57 4.025ZM4.93 9.995C4.99009 9.97139 5.03577 9.92115 5.05357 9.85909C5.07138 9.79702 5.05927 9.73021 5.02083 9.67833C3.97846 8.21643 4.28127 6.19158 5.70573 5.09859C7.13018 4.0056 9.16441 4.23724 10.3067 5.6225C10.3596 5.68748 10.4459 5.71496 10.5267 5.6925C10.9536 5.57028 11.3911 5.48826 11.8333 5.4475C11.9047 5.44087 11.9677 5.39801 12 5.33401C12.0324 5.27002 12.0295 5.1939 11.9925 5.1325C11.065 3.55621 9.35082 2.61211 7.52283 2.67076C5.69484 2.72941 4.04473 3.78146 3.22016 5.41397C2.3956 7.04648 2.52817 8.99893 3.56583 10.505C3.62999 10.6 3.75883 10.6253 3.85417 10.5617C4.19187 10.3355 4.55247 10.1456 4.93 9.995ZM18.4117 12.5617C18.361 12.5234 18.3304 12.4643 18.3283 12.4008C18.2782 9.55147 16.1767 7.1554 13.3582 6.73415C10.5397 6.3129 7.82936 7.9898 6.94833 10.7C6.92257 10.7811 6.84989 10.8383 6.765 10.8442C4.3002 11.0139 2.41351 13.1068 2.49936 15.5759C2.58521 18.0451 4.61269 20.0018 7.08333 20H15.8333C17.6079 19.9992 19.1872 18.8746 19.7684 17.198C20.3495 15.5213 19.805 13.6605 18.4117 12.5617ZM18.3333 15.8333C18.3333 17.214 17.214 18.3333 15.8333 18.3333H7.08333C5.99627 18.3338 4.99914 17.7298 4.49622 16.766C3.99331 15.8023 4.06808 14.6388 4.69022 13.7474C5.31235 12.856 6.37861 12.3845 7.45667 12.5242C7.90404 12.5849 8.31764 12.2762 8.38667 11.83C8.73322 9.68483 10.6702 8.16615 12.8361 8.34142C15.002 8.51668 16.6695 10.327 16.6667 12.5C16.6667 12.6217 16.6608 12.7408 16.65 12.8608C16.6204 13.1858 16.7833 13.4982 17.0667 13.66C17.8483 14.1047 18.3317 14.9341 18.3333 15.8333Z" fill="#1D1D1B"/>
</svg>
